<svg width="24" height="24" viewBox="0 0 24 24" fill="none" xmlns="http://www.w3.org/2000/svg">
<path d="M16.3 3.5C14.6 3.5 13.1 4.18786 12 5.46532C10.9 4.18786 9.4 3.5 7.7 3.5C4.6 3.5 2 6.05491 2 9.10116C2 9.29769 2 9.49422 2 9.69075C2.4 14.3092 7.4 18.1416 10.3 20.0087C10.8 20.3035 11.4 20.5 12 20.5C12.6 20.5 13.2 20.3035 13.7 20.0087C16.6 18.1416 21.6 14.3092 22 9.78902C22 9.59249 22 9.39595 22 9.19942C22 6.05491 19.4 3.5 16.3 3.5ZM20 9.49422C19.7 13.4249 14.7 16.9624 12.6 18.2399C12.2 18.4364 11.8 18.4364 11.4 18.2399C9.3 16.8642 4.4 13.3266 4 9.39595C4 9.39595 4 9.19942 4 9.10116C4 7.13584 5.7 5.46532 7.7 5.46532C9.2 5.46532 10.5 6.34971 11.1 7.62717C11.2 8.02023 11.6 8.21676 12 8.21676C12.4 8.21676 12.8 8.02023 12.9 7.62717C13.5 6.34971 14.8 5.46532 16.3 5.46532C18.3 5.46532 20 7.13584 20 9.10116C20 9.19942 20 9.39595 20 9.49422Z" fill="black"/>
</svg>
